<svg width="300" height="300" viewBox="0 0 300 300" fill="none" xmlns="http://www.w3.org/2000/svg">
<path d="M146.627 58.6276C132.684 58.9875 114.215 64.8399 111.456 64.8399C108.698 64.8399 104.56 46.8933 104.56 46.8933C104.56 46.8933 98.3535 22.7343 100.422 21.3538C102.491 19.9733 116.974 30.3272 116.974 30.3272L129.386 38.6102L138.352 24.8051C138.352 24.8051 146.626 11 149.385 11C152.144 11 161.799 24.8051 161.799 24.8051L169.384 38.6102L183.177 30.3272C183.177 30.3272 195.589 22.0441 198.348 22.7343C201.107 23.4246 194.211 46.8933 194.211 46.8933C194.211 46.8933 190.763 63.4594 188.004 64.8399C185.246 66.2204 162.961 58.206 146.627 58.6276Z" fill="#26E368" stroke="#26E368"/>
<path d="M188.751 82.4668C228.144 98.0932 256 136.543 256 181.5C256 240.318 208.318 288 149.5 288C138.957 288 128.773 286.468 119.156 283.614L148.809 260.394L149.198 260.088L148.896 259.695L132.643 238.517L149.185 218.995C149.29 218.996 149.395 219 149.5 219C170.211 219 187 202.211 187 181.5C187 166.34 178.004 153.282 165.06 147.371L188.693 137.461L189.108 137.287L188.979 136.855L179.528 105.522L188.751 82.4668ZM149.5 75C160.882 75 171.847 76.7864 182.131 80.0928L150.191 105.106L149.802 105.412L150.104 105.805L166.357 126.983L151.871 144.076C151.087 144.027 150.296 144 149.5 144C128.789 144 112 160.789 112 181.5C112 197.819 122.424 211.7 136.977 216.854L110.307 228.039L109.892 228.213L110.021 228.645L119.472 259.978L111.113 280.87C71.2641 265.466 43 226.785 43 181.5C43 122.682 90.6817 75 149.5 75Z" fill="#26E368"/>
<circle cx="149.5" cy="182.5" r="7.5" fill="#26E368"/>
</svg>
