<svg width="213" height="277" viewBox="0 0 213 277" fill="none" xmlns="http://www.w3.org/2000/svg">
<g clip-path="url(#clip0_2_2)">
<path d="M103.627 47.6276C89.6842 47.9875 71.2145 53.8399 68.456 53.8399C65.6976 53.8399 61.5603 35.8933 61.5603 35.8933C61.5603 35.8933 55.3535 11.7343 57.4221 10.3538C59.4906 8.97332 73.9735 19.3272 73.9735 19.3272L86.3862 27.6102L95.3518 13.8051C95.3518 13.8051 103.626 -2.10649e-05 106.385 0C109.144 2.10649e-05 118.799 13.8051 118.799 13.8051L126.384 27.6102L140.177 19.3272C140.177 19.3272 152.589 11.0441 155.348 11.7343C158.107 12.4246 151.211 35.8933 151.211 35.8933C151.211 35.8933 147.763 52.4594 145.004 53.8399C142.246 55.2204 119.961 47.206 103.627 47.6276Z" fill="#26E368" stroke="#26E368"/>
<path d="M145.751 71.4668C185.144 87.0932 213 125.543 213 170.5C213 229.318 165.318 277 106.5 277C95.9574 277 85.7728 275.468 76.1562 272.614L105.809 249.394L106.198 249.088L105.896 248.695L89.6426 227.517L106.185 207.995C106.29 207.996 106.395 208 106.5 208C127.211 208 144 191.211 144 170.5C144 155.34 135.004 142.282 122.06 136.371L145.693 126.461L146.108 126.287L145.979 125.855L136.528 94.5225L145.751 71.4668ZM106.5 64C117.882 64 128.847 65.7864 139.131 69.0928L107.191 94.1064L106.802 94.4121L107.104 94.8047L123.357 115.983L108.871 133.076C108.087 133.027 107.296 133 106.5 133C85.7893 133 69 149.789 69 170.5C69 186.819 79.4245 200.7 93.9766 205.854L67.3066 217.039L66.8916 217.213L67.0215 217.645L76.4717 248.978L68.1133 269.87C28.2641 254.466 0 215.785 0 170.5C0 111.682 47.6817 64 106.5 64Z" fill="#26E368"/>
<circle cx="106.5" cy="171.5" r="7.5" fill="#26E368"/>
</g>
<defs>
<clipPath id="clip0_2_2">
<rect width="213" height="277" fill="white"/>
</clipPath>
</defs>
</svg>
